<svg width="37" height="33" viewBox="0 0 37 33" fill="none" xmlns="http://www.w3.org/2000/svg">
<path d="M0 23L2.5 18.5C2.5 18.5 4.91762 22.1143 6 24.5C7.30336 27.3727 8.5 32.5 8.5 32.5H4C4 32.5 2.63464 28.8874 2 27C1.30422 24.9307 0 23 0 23Z" fill="#D9D9D9"/>
<path d="M0 23L2.5 18.5C2.5 18.5 4.91762 22.1143 6 24.5C7.30336 27.3727 8.5 32.5 8.5 32.5H4C4 32.5 2.63464 28.8874 2 27C1.30422 24.9307 0 23 0 23Z" fill="url(#paint0_linear_156_841)"/>
<path d="M6 13L8 8.5C8 8.5 13.2426 14.8014 15.5 19C18.1623 23.9517 20.5 32.5 20.5 32.5H16C16 32.5 14.1347 25.9173 12 22C9.97871 18.2908 6 13 6 13Z" fill="#D9D9D9"/>
<path d="M6 13L8 8.5C8 8.5 13.2426 14.8014 15.5 19C18.1623 23.9517 20.5 32.5 20.5 32.5H16C16 32.5 14.1347 25.9173 12 22C9.97871 18.2908 6 13 6 13Z" fill="url(#paint1_linear_156_841)"/>
<path d="M36.5 23L34 18.5C34 18.5 31.5837 23.8284 30.5 26.5C29.4313 29.1346 28.5 32.5 28.5 32.5H33C33 32.5 33.8144 29.3695 34.5 27.5C35.1922 25.6126 36.5 23 36.5 23Z" fill="#D9D9D9"/>
<path d="M36.5 23L34 18.5C34 18.5 31.5837 23.8284 30.5 26.5C29.4313 29.1346 28.5 32.5 28.5 32.5H33C33 32.5 33.8144 29.3695 34.5 27.5C35.1922 25.6126 36.5 23 36.5 23Z" fill="url(#paint2_linear_156_841)"/>
<path d="M36.5 23L34 18.5C34 18.5 31.5837 23.8284 30.5 26.5C29.4313 29.1346 28.5 32.5 28.5 32.5H33C33 32.5 33.8144 29.3695 34.5 27.5C35.1922 25.6126 36.5 23 36.5 23Z" stroke="black"/>
<path d="M28.5 32.5H33C33 32.5 30.3029 22.68 26.5 16.5C22.5038 10.0058 13 0.5 13 0.5L11 4.5C11 4.5 18.4434 12.0574 22 18C25.1471 23.2584 28.5 32.5 28.5 32.5Z" fill="#D9D9D9"/>
<path d="M28.5 32.5H33C33 32.5 30.3029 22.68 26.5 16.5C22.5038 10.0058 13 0.5 13 0.5L11 4.5C11 4.5 18.4434 12.0574 22 18C25.1471 23.2584 28.5 32.5 28.5 32.5Z" fill="url(#paint3_linear_156_841)"/>
<path d="M31 13L28.5 9C28.5 9 23.2891 15.1357 21 19.5C18.4735 24.317 16 32.5 16 32.5H20.5C20.5 32.5 22.643 26.2739 24.5 22.5C26.5107 18.4137 31 13 31 13Z" fill="#D9D9D9"/>
<path d="M31 13L28.5 9C28.5 9 23.2891 15.1357 21 19.5C18.4735 24.317 16 32.5 16 32.5H20.5C20.5 32.5 22.643 26.2739 24.5 22.5C26.5107 18.4137 31 13 31 13Z" fill="url(#paint4_linear_156_841)"/>
<path d="M26 4.5L24 0.5C24 0.5 14.4934 9.02759 10.5 15.5C6.63505 21.7643 4 32.5 4 32.5H8.5C8.5 32.5 11.599 22.9029 15 17.5C18.6109 11.7637 26 4.5 26 4.5Z" fill="#D9D9D9"/>
<path d="M26 4.5L24 0.5C24 0.5 14.4934 9.02759 10.5 15.5C6.63505 21.7643 4 32.5 4 32.5H8.5C8.5 32.5 11.599 22.9029 15 17.5C18.6109 11.7637 26 4.5 26 4.5Z" fill="url(#paint5_linear_156_841)"/>
<defs>
<linearGradient id="paint0_linear_156_841" x1="8.5" y1="25.75" x2="0.5" y2="25.75" gradientUnits="userSpaceOnUse">
<stop offset="0.35" stop-color="#5C4033"/>
<stop offset="1" stop-color="#C1A671"/>
</linearGradient>
<linearGradient id="paint1_linear_156_841" x1="20.5" y1="20.75" x2="6" y2="20.75" gradientUnits="userSpaceOnUse">
<stop offset="0.35" stop-color="#5C4033"/>
<stop offset="1" stop-color="#C1A671"/>
</linearGradient>
<linearGradient id="paint2_linear_156_841" x1="36.5" y1="25.75" x2="29" y2="25.75" gradientUnits="userSpaceOnUse">
<stop offset="0.35" stop-color="#5C4033"/>
<stop offset="1" stop-color="#C1A671"/>
</linearGradient>
<linearGradient id="paint3_linear_156_841" x1="33" y1="16.5" x2="11" y2="16.5" gradientUnits="userSpaceOnUse">
<stop offset="0.35" stop-color="#5C4033"/>
<stop offset="1" stop-color="#C1A671"/>
</linearGradient>
<linearGradient id="paint4_linear_156_841" x1="30.5" y1="20.75" x2="16.5" y2="20.75" gradientUnits="userSpaceOnUse">
<stop offset="0.35" stop-color="#5C4033"/>
<stop offset="1" stop-color="#C1A671"/>
</linearGradient>
<linearGradient id="paint5_linear_156_841" x1="26" y1="16.5" x2="4" y2="16.5" gradientUnits="userSpaceOnUse">
<stop offset="0.35" stop-color="#5C4033"/>
<stop offset="1" stop-color="#C1A671"/>
</linearGradient>
</defs>
</svg>
